<?xml version="1.0" encoding="UTF-8"?>
<!DOCTYPE svg PUBLIC "-//W3C//DTD SVG 1.1//EN" "http://www.w3.org/Graphics/SVG/1.1/DTD/svg11.dtd">
<!-- Creator: CorelDRAW 2020 (64-Bit) -->
<svg xmlns="http://www.w3.org/2000/svg" xml:space="preserve" width="21.1634mm" height="11.0022mm" version="1.1" style="shape-rendering:geometricPrecision; text-rendering:geometricPrecision; image-rendering:optimizeQuality; fill-rule:evenodd; clip-rule:evenodd"
viewBox="0 0 2116.34 1100.22"
 xmlns:xlink="http://www.w3.org/1999/xlink"
 xmlns:xodm="http://www.corel.com/coreldraw/odm/2003">
 <defs>
  <style type="text/css">
   <![CDATA[
    .fil0 {fill:none}
    .fil2 {fill:#EBEBEB}
    .fil3 {fill:#FAFAFA}
    .fil1 {fill:#2B2A29;fill-rule:nonzero}
   ]]>
  </style>
 </defs>
 <g id="Слой_x0020_1">
  <metadata id="CorelCorpID_0Corel-Layer"/>
  <path class="fil0" d="M1975.01 1093.61c0.12,-5.86 0.18,-11.75 0.18,-17.64 0,-479.64 -409.39,-879.34 -914.4,-879.34 -505.01,0 -914.4,399.7 -914.4,879.34 0,6.04 0.07,12.07 0.19,18.09"/>
  <path class="fil1" d="M100.36 794.87l5.26 -17.71 86.04 25.54 -5.14 17.31 -57.12 3.51 51.54 15.3 -5.22 17.58 -86.04 -25.54 5.18 -17.45 56.91 -3.27 -51.41 -15.27zm89.43 -28.37l10.95 -26.63 13.7 5.64 -18.62 45.29 -83.01 -34.14 18.2 -44.25 13.71 5.64 -10.53 25.58 20.23 8.32 8.96 -21.79 13.71 5.64 -8.96 21.79 21.66 8.91zm-4.38 -102.95l-8.6 18.25 -10.59 -4.99c-2.13,-1 -3.73,-0.35 -4.82,1.94l-2.46 5.24c-1.09,2.3 -0.56,3.95 1.57,4.95l49.78 23.45c1.19,0.57 2.15,0.7 2.86,0.41 0.7,-0.29 1.35,-1.07 1.96,-2.35l2.46 -5.24c0.6,-1.27 0.79,-2.28 0.57,-3 -0.23,-0.74 -0.94,-1.38 -2.14,-1.95l-15.82 -7.45 -3.01 6.39 -12.13 -5.72 11.61 -24.64 29.62 13.95c9.36,4.41 11.51,11.98 6.46,22.7l-7.76 16.47c-5.05,10.72 -12.25,13.88 -21.62,9.47l-53.1 -25.01c-9.36,-4.41 -11.52,-11.98 -6.47,-22.7l7.76 -16.48c5.05,-10.72 12.26,-13.87 21.62,-9.46l12.25 5.77zm80.63 -19.58l-15.52 -5.67 -10.5 17.56 12.33 11 -10.21 17.07 -66.59 -63.5 13.18 -22.04 87.74 28.14 -10.43 17.44zm-37.16 1.94l7.53 -12.59 -36.34 -13.19 28.81 25.78zm2.82 -114.47l12.33 8.21 -9.15 13.74 62.37 41.54 -11.19 16.79 -62.37 -41.53 -9.06 13.62 -12.34 -8.22 29.41 -44.15zm7.22 -9.39l11.91 -16.12 72.2 53.31 -11.91 16.12 -72.2 -53.31zm46.47 -59.34l13.19 -16.19 57.1 72 -15.6 19.15 -82.14 -41.27 13.28 -16.3 58.68 33.43 -44.51 -50.82zm91.52 10.41l20.22 -20.49 10.55 10.41 -34.4 34.85 -63.88 -63.04 33.61 -34.05 10.55 10.41 -19.43 19.68 15.56 15.37 16.55 -16.77 10.55 10.41 -16.55 16.77 16.67 16.45z"/>
  <path class="fil1" d="M857.73 126.97l18.03 -4.06 19.69 87.56 -17.62 3.97 -30.94 -48.15 11.8 52.45 -17.89 4.03 -19.7 -87.57 17.76 -3.99 30.63 48.08 -11.76 -52.32zm68.38 64.44l28.57 -3.54 1.82 14.71 -48.6 6.02 -11.03 -89.07 47.47 -5.88 1.82 14.71 -27.45 3.4 2.69 21.7 23.39 -2.9 1.82 14.71 -23.38 2.9 2.88 23.24zm66.6 -82.06l20.12 -1.5 5.49 73.89c0.78,10.41 -4.8,16.06 -16.71,16.94l-18.86 1.4c-11.81,0.88 -18.11,-3.89 -18.89,-14.3l-5.49 -73.88 20.13 -1.5 5.29 71.22c0.17,2.34 1.48,3.42 3.92,3.23l6.75 -0.5c2.53,-0.19 3.71,-1.45 3.54,-3.79l-5.29 -71.21zm84.53 -2.91l0.37 14.82 -16.51 0.4 1.85 74.91 -20.18 0.5 -1.84 -74.91 -16.36 0.41 -0.36 -14.82 53.03 -1.31zm31.8 57.77l-2.49 33.49 -19.99 -1.49 6.65 -89.5 36.87 2.74c11.82,0.87 17.35,6.48 16.58,16.8l-1.86 25.04c-0.61,8.26 -4.73,12.96 -12.37,14.08l13.24 35.23 -21.53 -1.6 -11.58 -34.53 -3.52 -0.26zm3.06 -41.24l-2.01 27.02 10.83 0.8c1.32,0.1 2.27,-0.08 2.88,-0.56 0.6,-0.47 0.94,-1.32 1.03,-2.54l1.5 -20.12c0.17,-2.35 -0.96,-3.61 -3.4,-3.79l-10.83 -0.81zm81.08 83.09l-1.08 -16.49 -20.3 -2.51 -5.09 15.72 -19.74 -2.44 31.21 -86.57 25.48 3.15 9.69 91.64 -20.17 -2.5zm-16.78 -33.21l14.56 1.8 -2.61 -38.57 -11.95 36.77zm65.95 26.38l25.44 4.42 -2.54 14.6 -45.18 -7.85 15.37 -88.43 19.75 3.44 -12.84 73.82z"/>
  <path class="fil1" d="M1806.69 429.66l24.7 27.51c7.92,8.82 8.03,16.69 0.33,23.61l-20.27 18.19c-7.76,6.98 -15.61,6.05 -23.53,-2.77l-11.31 -12.59 -23.31 20.93 -13.39 -14.92 66.78 -59.96zm-6.72 52.5l16.17 -14.51c1.74,-1.57 1.81,-3.27 0.17,-5.09l-7.25 -8.08 -21.43 19.23 7.26 8.08c1.64,1.83 3.33,1.94 5.08,0.37zm65.22 16.24l11.24 15.21c7.04,9.53 6.39,17.38 -1.93,23.53l-47.11 34.78c-8.4,6.21 -16.12,4.54 -23.16,-5l-11.23 -15.21c-7.1,-9.61 -6.45,-17.51 1.95,-23.72l47.1 -34.78c8.33,-6.15 16.04,-4.43 23.14,5.19zm-47.63 55.7l42.68 -31.52c1.89,-1.4 2.11,-3.09 0.66,-5.05l-4.03 -5.46c-1.51,-2.04 -3.21,-2.36 -5.1,-0.96l-42.69 31.52c-1.89,1.39 -2.07,3.11 -0.56,5.15l4.02 5.46c1.45,1.96 3.13,2.25 5.02,0.86zm36.8 52.82l13.51 -9c1.02,-0.67 1.59,-1.4 1.7,-2.15 0.12,-0.76 -0.21,-1.72 -0.99,-2.9l-6.88 -10.33c-6.16,-9.24 -4.85,-16.78 3.92,-22.62l17.03 -11.34c8.61,-5.74 16.21,-3.68 22.78,6.19l9.54 14.33c6.57,9.87 5.54,17.67 -3.07,23.4l-9.75 6.49 -11.18 -16.79 7.4 -4.93c1.95,-1.3 2.23,-3.01 0.82,-5.13l-2.65 -3.98c-1.41,-2.12 -3.1,-2.52 -5.05,-1.22l-13.15 8.76c-1.03,0.68 -1.6,1.39 -1.71,2.14 -0.12,0.77 0.21,1.73 1,2.91l6.72 10.09c3.34,5.01 4.66,9.33 3.96,12.96 -0.69,3.63 -3.15,6.84 -7.38,9.66l-17.62 11.73c-8.69,5.79 -16.31,3.76 -22.89,-6.11l-9.46 -14.21c-6.62,-9.95 -5.59,-17.81 3.1,-23.6l9.63 -6.41 11.19 16.8 -7.4 4.92c-1.96,1.31 -2.23,3.01 -0.82,5.13l2.66 3.99c1.41,2.11 3.09,2.52 5.04,1.22zm78.25 -8.95l10.29 17.19 -77.03 46.07 -10.29 -17.2 77.03 -46.06zm40.85 74.5l-13.08 6.97 -7.77 -14.57 -66.12 35.25 -9.49 -17.81 66.12 -35.25 -7.7 -14.43 13.08 -6.98 24.96 46.82zm4.32 11.18l8.54 18.13 -81.2 38.24 -8.54 -18.13 81.2 -38.24zm30.62 74l6.96 19.69 -91.21 11.29 -8.23 -23.29 77.99 -48.66 7.01 19.82 -59.09 32.71 66.57 -11.56zm-55.13 71.61l8.19 27.59 -14.21 4.22 -13.93 -46.94 86.04 -25.54 13.61 45.86 -14.21 4.21 -7.87 -26.51 -20.96 6.22 6.7 22.59 -14.21 4.22 -6.7 -22.59 -22.45 6.67z"/>
  <path class="fil0" d="M1553.97 1093.72c-0.06,-274.06 -220.84,-469.8 -493.18,-469.8 -272.38,0 -493.18,195.8 -493.18,470.04"/>
  <path class="fil1" d="M554.97 1058.25l-57.89 -4.42c-1.64,-0.13 -2.74,0.07 -3.29,0.58 -0.54,0.51 -0.88,1.59 -1,3.23l-0.57 7.41c-0.12,1.64 0.04,2.74 0.5,3.28 0.47,0.53 1.53,0.88 3.18,1l57.89 4.43c1.64,0.12 2.74,-0.05 3.28,-0.52 0.53,-0.46 0.87,-1.51 1,-3.16l0.57 -7.41c0.12,-1.64 -0.05,-2.76 -0.51,-3.34 -0.46,-0.59 -1.51,-0.95 -3.16,-1.08zm-58.86 -17.05l61.73 4.71c8.05,0.62 11.75,5.18 11.1,13.69l-1.14 14.95c-0.66,8.59 -5.02,12.58 -13.06,11.97l-61.73 -4.72c-8.05,-0.62 -11.75,-5.22 -11.09,-13.82l1.14 -14.94c0.65,-8.51 5,-12.46 13.05,-11.84zm77.68 -24.93l-16.64 -3.02 2.47 -13.67 16.65 3.01 -2.48 13.68zm13.75 -61.04l-15.98 -5.57 4.57 -13.13 15.98 5.57 -4.57 13.13zm22.57 -58.36l-15.32 -7.19 5.91 -12.59 15.32 7.2 -5.91 12.58zm30.04 -54.84l-14.02 -9.47 7.78 -11.51 14.02 9.46 -7.78 11.52zm-7.86 -107.48l10.31 9.51 -8.4 9.1 -11.72 -10.83c-5.93,-5.47 -6.01,-11.34 -0.23,-17.61l8.03 -8.7c5.85,-6.33 11.74,-6.76 17.67,-1.28l6.37 5.88c4.72,4.35 8.24,9.79 10.58,16.32l14.2 38.38 16.24 -17.59 7.37 6.81 -25.75 27.9 -7.08 -6.53 -14.83 -42.34c-1.83,-5.18 -5.01,-9.87 -9.52,-14.03l-4.65 -4.3c-1.21,-1.12 -2.18,-1.66 -2.9,-1.64 -0.7,0.03 -1.65,0.69 -2.83,1.97l-2.99 3.24c-1.12,1.21 -1.68,2.19 -1.69,2.93 0.01,0.75 0.61,1.69 1.82,2.81zm50.92 -24.77l9.99 -8.86c6.45,-5.72 12.34,-5.57 17.7,0.47l19.63 22.13c5.36,6.03 4.82,11.92 -1.63,17.64l-9.88 8.76c-6.38,5.67 -12.26,5.48 -17.61,-0.56l-10.14 -11.42 9.37 -8.31 8.86 9.99c1.09,1.23 2.02,1.85 2.76,1.86 0.74,0.01 1.74,-0.53 2.97,-1.62l4.22 -3.74c1.24,-1.1 1.89,-2.02 1.97,-2.76 0.08,-0.74 -0.43,-1.74 -1.53,-2.97l-17.07 -19.25c-1.1,-1.23 -2.04,-1.87 -2.81,-1.91 -0.78,-0.05 -1.79,0.47 -3.02,1.57l-16.47 14.6 -28.03 -31.59 28.71 -25.47 6.67 7.51 -19.45 17.26 14.79 16.67zm95.62 -5.37l-9.27 -14.15 11.63 -7.62 9.27 14.15 -11.63 7.62zm54.69 -30.36l-7.16 -15.33 12.59 -5.88 7.16 15.33 -12.59 5.88zm58.04 -23.36l-4.95 -16.18 13.3 -4.06 4.94 16.18 -13.29 4.06zm60.5 -15.89l-3.43 -16.57 13.61 -2.82 3.43 16.57 -13.61 2.82zm72.02 -63.46l13.32 -0.9c8.6,-0.58 13.17,3.15 13.72,11.2l2 29.51c0.54,8.05 -3.48,12.37 -12.08,12.96l-13.18 0.89c-8.51,0.58 -13.05,-3.16 -13.59,-11.21l-1.04 -15.24 12.49 -0.85 0.91 13.32c0.11,1.65 0.46,2.71 1.05,3.17 0.58,0.46 1.69,0.65 3.34,0.53l5.63 -0.38c1.64,-0.11 2.72,-0.44 3.24,-0.98 0.51,-0.54 0.72,-1.63 0.61,-3.28l-1.75 -25.67c-0.11,-1.65 -0.46,-2.72 -1.05,-3.24 -0.58,-0.51 -1.7,-0.71 -3.35,-0.6l-21.95 1.49 -2.86 -42.14 38.29 -2.6 0.68 10.02 -25.94 1.77 1.51 22.23zm69.68 39.29l1.3 -58.04c0.04,-1.65 -0.22,-2.74 -0.76,-3.26 -0.54,-0.51 -1.63,-0.79 -3.28,-0.83l-7.43 -0.16c-1.65,-0.04 -2.73,0.19 -3.24,0.68 -0.51,0.49 -0.8,1.57 -0.84,3.22l-1.3 58.04c-0.04,1.65 0.2,2.74 0.69,3.25 0.49,0.51 1.56,0.79 3.21,0.83l7.43 0.17c1.65,0.04 2.75,-0.2 3.31,-0.69 0.57,-0.48 0.87,-1.56 0.91,-3.21zm13.86 -59.69l-1.39 61.89c-0.18,8.07 -4.54,12.01 -13.07,11.82l-14.98 -0.33c-8.62,-0.2 -12.84,-4.33 -12.66,-12.4l1.39 -61.9c0.18,-8.06 4.58,-12.01 13.2,-11.81l14.99 0.33c8.52,0.2 12.7,4.33 12.52,12.4zm48.68 81.13l3.43 -16.57 13.61 2.82 -3.43 16.57 -13.61 -2.82zm60.81 14.68l4.94 -16.19 13.3 4.07 -4.95 16.18 -13.29 -4.06zm58.71 21.59l7.15 -15.33 12.6 5.87 -7.16 15.34 -12.59 -5.88zm55.62 28.66l9.27 -14.16 11.63 7.61 -9.27 14.16 -11.63 -7.61zm134.87 -5.69l-5.12 5.77 -69.34 43.31 -9.46 -8.39 67.08 -41.83 -18.82 -16.7 6.85 -7.72 28.81 25.56zm-4.02 40.94l9.06 9.81c5.85,6.33 5.82,12.23 -0.11,17.71l-21.72 20.07c-5.93,5.48 -11.82,5.06 -17.67,-1.27l-8.97 -9.7c-5.79,-6.27 -5.72,-12.14 0.21,-17.62l11.21 -10.37 8.5 9.2 -9.81 9.06c-1.21,1.12 -1.81,2.06 -1.8,2.8 0,0.75 0.56,1.73 1.68,2.94l3.83 4.14c1.12,1.21 2.05,1.85 2.79,1.91 0.74,0.06 1.73,-0.46 2.94,-1.58l18.89 -17.47c1.22,-1.12 1.83,-2.07 1.86,-2.85 0.03,-0.77 -0.51,-1.77 -1.63,-2.98l-14.94 -16.17 31.02 -28.67 26.05 28.19 -7.38 6.82 -17.64 -19.1 -16.37 15.13zm8.74 94.35l14.02 -9.48 7.78 11.52 -14.02 9.47 -7.78 -11.51zm32.55 53.42l15.31 -7.2 5.92 12.58 -15.31 7.2 -5.92 -12.58zm24.38 57.61l15.98 -5.57 4.57 13.13 -15.98 5.56 -4.57 -13.12zm100.73 41.36l-83.84 19.73 -2.87 -12.19 74.06 -17.43 -2.27 -9.64 9.78 -2.31 5.14 21.84zm-63.76 59.31l57.59 -7.38c1.63,-0.21 2.67,-0.63 3.1,-1.24 0.43,-0.61 0.54,-1.73 0.33,-3.37l-0.95 -7.37c-0.21,-1.63 -0.59,-2.67 -1.15,-3.11 -0.57,-0.43 -1.68,-0.55 -3.31,-0.34l-57.59 7.39c-1.64,0.21 -2.68,0.6 -3.11,1.16 -0.43,0.56 -0.55,1.67 -0.34,3.3l0.94 7.37c0.21,1.64 0.61,2.7 1.18,3.18 0.56,0.48 1.67,0.62 3.31,0.41zm61.09 4.79l-61.4 7.88c-8.01,1.02 -12.56,-2.7 -13.64,-11.16l-1.91 -14.87c-1.1,-8.55 2.36,-13.34 10.36,-14.36l61.41 -7.88c8.01,-1.03 12.56,2.73 13.66,11.28l1.91 14.87c1.08,8.46 -2.38,13.21 -10.39,14.24zm-58.02 50.19l58.04 -1.48c1.65,-0.04 2.72,-0.35 3.22,-0.91 0.48,-0.57 0.71,-1.67 0.66,-3.32l-0.18 -7.43c-0.05,-1.65 -0.32,-2.72 -0.84,-3.21 -0.52,-0.49 -1.61,-0.72 -3.26,-0.68l-58.04 1.49c-1.65,0.04 -2.72,0.33 -3.21,0.84 -0.48,0.51 -0.72,1.6 -0.67,3.25l0.19 7.42c0.04,1.65 0.33,2.75 0.84,3.28 0.51,0.54 1.6,0.79 3.25,0.75zm60.29 10.99l-61.89 1.58c-8.07,0.2 -12.21,-3.96 -12.43,-12.49l-0.38 -14.99c-0.22,-8.61 3.7,-13.03 11.77,-13.23l61.89 -1.58c8.07,-0.21 12.22,4 12.44,12.62l0.38 14.98c0.22,8.53 -3.71,12.9 -11.78,13.11z"/>
  <g id="_2534044252128">
   <path class="fil2" d="M1236.2 1093.8l0 -40.14c0,-49.65 -19.32,-93.19 -50.59,-124.44 -31.8,-31.79 -75.99,-50.91 -124.82,-50.91 -48.83,0 -93.04,19.13 -124.84,50.93 -31.26,31.26 -50.57,74.81 -50.57,124.5l0 42.25c116.9,0 233.93,0.46 350.82,-0.09l0 -2.1z"/>
  </g>
  <path class="fil3" d="M1234.08 1093.8c-0.01,-98.99 -77.59,-173.23 -173.29,-173.23 -95.71,0 -173.29,74.26 -173.29,173.31l346.58 -0.08z"/>
 </g>
</svg>
