<?xml version="1.0" encoding="UTF-8"?>
<!DOCTYPE svg PUBLIC "-//W3C//DTD SVG 1.1//EN" "http://www.w3.org/Graphics/SVG/1.1/DTD/svg11.dtd">
<!-- Creator: CorelDRAW 2020 (64-Bit) -->
<svg xmlns="http://www.w3.org/2000/svg" xml:space="preserve" width="4.35cm" height="4.25cm" version="1.1" style="shape-rendering:geometricPrecision; text-rendering:geometricPrecision; image-rendering:optimizeQuality; fill-rule:evenodd; clip-rule:evenodd"
viewBox="0 0 4350 4250"
 xmlns:xlink="http://www.w3.org/1999/xlink"
 xmlns:xodm="http://www.corel.com/coreldraw/odm/2003">
 <defs>
  <style type="text/css">
   <![CDATA[
    .fil2 {fill:#FEFEFE}
    .fil0 {fill:#2F2C2A}
    .fil3 {fill:#FEFEFE;fill-rule:nonzero}
    .fil1 {fill:#2F2C2A;fill-rule:nonzero}
   ]]>
  </style>
 </defs>
 <g id="__x0023_Layer_x0020_1">
  <metadata id="CorelCorpID_0Corel-Layer"/>
  <g id="_2160593345424">
   <path class="fil0" d="M2175.54 52.23c-1176.4,0 -2130.35,953.74 -2130.35,2130.33 0,941.24 610.41,1739.78 1456.87,2021.48 106.45,19.71 145.55,-46.23 145.55,-102.49 0,-50.78 -1.96,-218.62 -2.89,-396.63 -592.66,128.88 -717.72,-251.36 -717.72,-251.36 -96.91,-246.22 -236.54,-311.71 -236.54,-311.71 -193.3,-132.22 14.57,-129.5 14.57,-129.5 213.91,15.02 326.57,219.56 326.57,219.56 189.99,325.66 498.36,231.51 619.94,177.07 19.12,-137.66 74.31,-231.68 135.25,-284.87 -473.18,-53.85 -970.62,-236.54 -970.62,-1052.81 0,-232.58 83.24,-422.63 219.52,-571.82 -22.11,-53.67 -95.04,-270.33 20.64,-563.79 0,0 178.9,-57.22 585.98,218.4 169.94,-47.21 352.19,-70.88 533.23,-71.71 181.04,0.83 363.42,24.5 533.68,71.71 406.62,-275.62 585.25,-218.4 585.25,-218.4 115.96,293.46 43.03,510.12 20.91,563.79 136.6,149.19 219.25,339.24 219.25,571.82 0,818.23 -498.37,998.38 -972.76,1051.12 76.41,66.11 144.49,195.75 144.49,394.5 0,285.04 -2.45,514.46 -2.45,584.63 0,56.71 38.35,123.13 146.31,102.22 846.02,-282.02 1455.66,-1080.28 1455.66,-2021.21 0,-1176.59 -953.81,-2130.33 -2130.34,-2130.33z"/>
   <path class="fil1" d="M852.07 3110.92c-4.68,10.61 -21.36,13.77 -36.52,6.5 -15.47,-6.95 -24.11,-21.39 -19.12,-32 4.58,-10.89 21.26,-13.92 36.69,-6.65 15.47,6.96 24.29,21.53 18.95,32.15z"/>
   <path class="fil1" d="M938.37 3207.17c-10.16,9.41 -30.04,5.03 -43.51,-9.85 -13.95,-14.85 -16.54,-34.73 -6.24,-44.27 10.48,-9.41 29.73,-5 43.69,9.85 13.95,15.02 16.67,34.73 6.06,44.27z"/>
   <path class="fil1" d="M1022.36 3329.85c-13.06,9.09 -34.41,0.58 -47.61,-18.36 -13.06,-18.95 -13.06,-41.69 0.31,-50.78 13.2,-9.1 34.24,-0.9 47.61,17.88 13.02,19.26 13.02,41.99 -0.31,51.26z"/>
   <path class="fil1" d="M1137.43 3448.4c-11.68,12.88 -36.56,9.4 -54.75,-8.17 -18.63,-17.16 -23.8,-41.55 -12.12,-54.43 11.85,-12.89 36.86,-9.27 55.19,8.16 18.5,17.16 24.11,41.69 11.68,54.44z"/>
   <path class="fil1" d="M1296.18 3517.23c-5.17,16.67 -29.11,24.25 -53.23,17.16 -24.11,-7.31 -39.86,-26.84 -35,-43.69 4.99,-16.81 29.07,-24.7 53.36,-17.12 24.08,7.27 39.86,26.66 34.87,43.65z"/>
   <path class="fil1" d="M1470.54 3529.98c0.58,17.56 -19.88,32.14 -45.21,32.45 -25.46,0.58 -46.09,-13.64 -46.36,-30.94 0,-17.74 20.01,-32.14 45.47,-32.59 25.32,-0.48 46.1,13.64 46.1,31.08z"/>
   <path class="fil1" d="M1632.76 3502.38c3.03,17.12 -14.57,34.73 -39.72,39.41 -24.74,4.55 -47.61,-6.06 -50.78,-23.05 -3.06,-17.56 14.85,-35.17 39.55,-39.72 25.18,-4.37 47.75,5.93 50.95,23.36z"/>
  </g>
  <path class="fil2" d="M-1807.09 5915.51c-317.31,0 -574.62,257.28 -574.62,574.69 0,253.87 164.64,469.26 393.01,545.25 28.74,5.28 39.23,-12.47 39.23,-27.7 0,-13.64 -0.5,-49.78 -0.78,-97.73 -159.85,34.72 -193.58,-77.04 -193.58,-77.04 -26.13,-66.38 -63.8,-84.06 -63.8,-84.06 -52.18,-35.65 3.94,-34.93 3.94,-34.93 57.67,4.07 88.02,59.22 88.02,59.22 51.27,87.82 134.5,62.46 167.25,47.75 5.22,-37.13 20.06,-62.46 36.48,-76.82 -127.61,-14.5 -261.76,-63.81 -261.76,-284.02 0,-62.73 22.39,-114.03 59.15,-154.2 -5.91,-14.54 -25.63,-72.96 5.64,-152.08 0,0 48.25,-15.45 158.02,58.91 45.84,-12.75 95,-19.12 143.87,-19.34 48.8,0.22 97.96,6.59 143.87,19.34 109.71,-74.36 157.87,-58.91 157.87,-58.91 31.35,79.12 11.63,137.54 5.72,152.08 36.83,40.17 59.07,91.47 59.07,154.2 0,220.76 -134.36,269.34 -262.38,283.57 20.63,17.74 39.01,52.81 39.01,106.42 0,76.82 -0.7,138.8 -0.7,157.64 0,15.37 10.35,33.25 39.51,27.64 228.15,-76.14 392.66,-291.39 392.66,-545.19 0,-317.41 -257.32,-574.69 -574.7,-574.69z"/>
  <g id="_2160593341248">
   <path class="fil2" d="M5177.92 4186.57c-1176.4,0 -2130.35,953.74 -2130.35,2130.34 0,941.24 610.41,1739.77 1456.87,2021.48 106.45,19.71 145.55,-46.23 145.55,-102.49 0,-50.78 -1.96,-218.63 -2.89,-396.63 -592.66,128.88 -717.72,-251.36 -717.72,-251.36 -96.91,-246.22 -236.54,-311.71 -236.54,-311.71 -193.3,-132.22 14.57,-129.5 14.57,-129.5 213.91,15.02 326.57,219.55 326.57,219.55 189.99,325.67 498.36,231.51 619.94,177.08 19.12,-137.67 74.31,-231.68 135.25,-284.87 -473.18,-53.85 -970.62,-236.55 -970.62,-1052.83 0,-232.57 83.24,-422.62 219.52,-571.81 -22.11,-53.68 -95.04,-270.34 20.64,-563.79 0,0 178.9,-57.23 585.98,218.4 169.94,-47.21 352.19,-70.88 533.23,-71.71 181.04,0.83 363.42,24.5 533.68,71.71 406.62,-275.63 585.25,-218.4 585.25,-218.4 115.96,293.45 43.03,510.11 20.91,563.79 136.6,149.19 219.25,339.24 219.25,571.81 0,818.25 -498.37,998.39 -972.76,1051.14 76.41,66.11 144.49,195.75 144.49,394.5 0,285.04 -2.45,514.45 -2.45,584.63 0,56.7 38.35,123.13 146.31,102.21 846.02,-282.01 1455.66,-1080.27 1455.66,-2021.2 0,-1176.6 -953.81,-2130.34 -2130.34,-2130.34z"/>
   <path class="fil3" d="M3854.45 7245.26c-4.68,10.61 -21.36,13.78 -36.52,6.51 -15.47,-6.96 -24.11,-21.39 -19.12,-32 4.58,-10.89 21.26,-13.92 36.69,-6.65 15.47,6.96 24.29,21.53 18.95,32.14z"/>
   <path class="fil3" d="M3940.75 7341.52c-10.16,9.4 -30.04,5.03 -43.51,-9.86 -13.95,-14.84 -16.54,-34.72 -6.24,-44.27 10.48,-9.4 29.73,-4.99 43.69,9.86 13.95,15.02 16.67,34.72 6.06,44.27z"/>
   <path class="fil3" d="M4024.74 7464.2c-13.06,9.09 -34.41,0.58 -47.61,-18.37 -13.06,-18.94 -13.06,-41.68 0.31,-50.77 13.2,-9.1 34.24,-0.9 47.61,17.87 13.02,19.26 13.02,42 -0.31,51.27z"/>
   <path class="fil3" d="M4139.81 7582.74c-11.68,12.89 -36.56,9.41 -54.75,-8.16 -18.63,-17.16 -23.8,-41.55 -12.12,-54.43 11.85,-12.89 36.86,-9.27 55.19,8.16 18.5,17.16 24.11,41.68 11.68,54.43z"/>
   <path class="fil3" d="M4298.56 7651.57c-5.17,16.68 -29.11,24.26 -53.23,17.16 -24.11,-7.3 -39.86,-26.84 -35,-43.68 4.99,-16.81 29.07,-24.7 53.36,-17.13 24.08,7.28 39.86,26.67 34.87,43.65z"/>
   <path class="fil3" d="M4472.92 7664.32c0.58,17.57 -19.88,32.14 -45.21,32.46 -25.46,0.58 -46.09,-13.65 -46.36,-30.94 0,-17.74 20.01,-32.14 45.47,-32.59 25.32,-0.49 46.1,13.64 46.1,31.07z"/>
   <path class="fil3" d="M4635.14 7636.73c3.03,17.12 -14.57,34.72 -39.72,39.41 -24.74,4.55 -47.61,-6.06 -50.78,-23.05 -3.06,-17.57 14.85,-35.17 39.55,-39.72 25.18,-4.38 47.75,5.92 50.95,23.36z"/>
  </g>
 </g>
</svg>
